<svg id="Layer_1" data-name="Layer 1" xmlns="http://www.w3.org/2000/svg" viewBox="0 0 169.64 40.63"><defs><style>.cls-1{isolation:isolate;}</style></defs><title>logo</title><g id="artHOME" class="cls-1"><g class="cls-1"><path d="M18,24.09Q15.88,22,11.48,22a16.69,16.69,0,0,0-4.58.7,16.63,16.63,0,0,0-4.14,1.74l1.6,4a16.05,16.05,0,0,1,3.36-1.44,11.25,11.25,0,0,1,3.2-.52,3.83,3.83,0,0,1,2.64.72,3.32,3.32,0,0,1,.76,2.48v.72h-1A31.49,31.49,0,0,0,6.6,31a6.5,6.5,0,0,0-3.54,1.8A5,5,0,0,0,2,36.21a5.71,5.71,0,0,0,.94,3.2,6.34,6.34,0,0,0,2.56,2.24,8.12,8.12,0,0,0,3.62.8,6.17,6.17,0,0,0,3.28-.86,4.81,4.81,0,0,0,2-2.38v2.92h5.72V30.53C20.08,27.62,19.38,25.48,18,24.09Zm-3.66,10a4.37,4.37,0,0,1-1.08,3.06,3.66,3.66,0,0,1-2.84,1.18,2.55,2.55,0,0,1-1.86-.72,2.42,2.42,0,0,1-.74-1.8,1.88,1.88,0,0,1,1.3-1.88,13.59,13.59,0,0,1,4.54-.52h.68Z" transform="translate(-1.96 -1.82)"/><path d="M38.28,22l-1.76.12q-4.64.32-6.12,3.72V22.49H24.6V42.13h6V31.89a4.59,4.59,0,0,1,1-3.14,5.24,5.24,0,0,1,3.56-1.42l3.4-.36Z" transform="translate(-1.96 -1.82)"/><path d="M53.48,38q-3.28,0-3.28-3.52V27h4.92V22.49H50.2V16.73h-6v5.76H40.44V27h3.72v7.52c0,2.67.69,4.65,2.06,6s3.55,2,6.54,2a16.45,16.45,0,0,0,2.32-.16l.32-4.4A16.21,16.21,0,0,1,53.48,38Z" transform="translate(-1.96 -1.82)"/></g><g class="cls-1"><path d="M79.36,15.21v11.2H62.48V15.31l-3.24,3.24V42.13h3.24V29.21H79.36V42.13H82.6V18.45Z" transform="translate(-1.96 -1.82)"/><path d="M112.66,20.35a11.34,11.34,0,0,0-4.44-5,14.39,14.39,0,0,0-13.72,0,11.22,11.22,0,0,0-4.44,5,17.81,17.81,0,0,0-1.54,7.7,17.45,17.45,0,0,0,1.56,7.64,11.49,11.49,0,0,0,4.46,5,14.09,14.09,0,0,0,13.64,0,11.55,11.55,0,0,0,4.46-5A17.57,17.57,0,0,0,114.2,28,17.87,17.87,0,0,0,112.66,20.35Zm-4.32,16.28a9.55,9.55,0,0,1-14,0c-1.67-2-2.5-4.89-2.5-8.6s.83-6.57,2.5-8.58a9.62,9.62,0,0,1,14,0q2.48,3,2.48,8.6C110.84,31.74,110,34.62,108.34,36.63Z" transform="translate(-1.96 -1.82)"/><path d="M144.08,13.93,133.52,34.37,122.84,13.93h-2.72v28.2h3l0-21.68,9.2,17.2h2.32l9.16-17.36,0,21.84h3V13.93Z" transform="translate(-1.96 -1.82)"/><path d="M171.6,16.65V13.93H153.76v28.2H171.6V39.41H157V29.17h13.8V26.45H157v-9.8Z" transform="translate(-1.96 -1.82)"/></g></g><path d="M87.31,20.28a1.5,1.5,0,0,1-1.06.43,1.48,1.48,0,0,1-1.06-.43L71,6.06,59.24,17.79l-2.49,2.49a1.52,1.52,0,0,1-1.63.32,1.38,1.38,0,0,1-.49-.32,1.49,1.49,0,0,1,0-2.12l.49-.49L71,1.82,87.31,18.16A1.51,1.51,0,0,1,87.31,20.28Z" transform="translate(-1.96 -1.82)"/></svg>